<svg width="52" height="52" viewBox="0 0 52 52" fill="none" xmlns="http://www.w3.org/2000/svg">
<g clip-path="url(#clip0_489_48472)">
<path d="M10.0404 38.5996V41.9596C10.0404 42.4052 9.86337 42.8325 9.54831 43.1476C9.23325 43.4626 8.80594 43.6396 8.36037 43.6396H5.00037C4.55481 43.6396 4.1275 43.4626 3.81243 43.1476C3.49737 42.8325 3.32037 42.4052 3.32037 41.9596V38.5996H10.0404Z" fill="#151538"/>
<path d="M47.8406 45.321H26.0006C25.1094 45.321 24.2548 44.967 23.6247 44.3369C22.9946 43.7068 22.6406 42.8521 22.6406 41.961V13.401C22.6406 12.5099 22.9946 11.6553 23.6247 11.0251C24.2548 10.395 25.1094 10.041 26.0006 10.041H31.8806V11.721H26.0006C25.555 11.721 25.1277 11.898 24.8126 12.2131C24.4976 12.5281 24.3206 12.9555 24.3206 13.401V41.961C24.3206 42.4066 24.4976 42.8339 24.8126 43.149C25.1277 43.464 25.555 43.641 26.0006 43.641H47.8406C48.2861 43.641 48.7134 43.464 49.0285 43.149C49.3436 42.8339 49.5206 42.4066 49.5206 41.961V13.401C49.5206 12.9555 49.3436 12.5281 49.0285 12.2131C48.7134 11.898 48.2861 11.721 47.8406 11.721H41.9606V10.041H47.8406C48.7317 10.041 49.5863 10.395 50.2164 11.0251C50.8466 11.6553 51.2006 12.5099 51.2006 13.401V41.961C51.2006 42.8521 50.8466 43.7068 50.2164 44.3369C49.5863 44.967 48.7317 45.321 47.8406 45.321Z" fill="black"/>
<path d="M23.4806 22.6406V39.4406H3.32056C2.87541 39.4393 2.44887 39.2619 2.13409 38.9471C1.81932 38.6323 1.64189 38.2058 1.64056 37.7606V26.9498C1.6412 26.6605 1.71654 26.3763 1.85929 26.1246C2.00204 25.8729 2.20736 25.6624 2.45536 25.5134L5.84056 23.4806L6.68056 22.6406H23.4806Z" fill="#FF595A"/>
<path d="M3.32056 20.1191H4.16056C4.60613 20.1191 5.03344 20.2961 5.3485 20.6112C5.66356 20.9263 5.84056 21.3536 5.84056 21.7991V23.4791H3.32056C2.875 23.4791 2.44769 23.3021 2.13262 22.9871C1.81756 22.672 1.64056 22.2447 1.64056 21.7991C1.64056 21.3536 1.81756 20.9263 2.13262 20.6112C2.44769 20.2961 2.875 20.1191 3.32056 20.1191Z" fill="#FF595A"/>
<path d="M8.36018 28.5198C8.36018 27.592 7.60802 26.8398 6.68018 26.8398C5.75234 26.8398 5.00018 27.592 5.00018 28.5198V30.1998C5.00018 31.1277 5.75234 31.8798 6.68018 31.8798C7.60802 31.8798 8.36018 31.1277 8.36018 30.1998V28.5198Z" fill="#F4BC2F"/>
<path d="M23.4803 31.0416H12.5603C12.3376 31.0416 12.1239 30.9531 11.9664 30.7956C11.8088 30.6381 11.7203 30.4244 11.7203 30.2016C11.7203 29.5333 11.9858 28.8923 12.4584 28.4197C12.931 27.9471 13.572 27.6816 14.2403 27.6816H23.4803V31.0416Z" fill="#D30032"/>
<path d="M41.96 10.8809H47.84C48.5083 10.8809 49.1493 11.1464 49.6219 11.6189C50.0945 12.0915 50.36 12.7325 50.36 13.4009V41.9609C50.36 42.6292 50.0945 43.2702 49.6219 43.7428C49.1493 44.2154 48.5083 44.4809 47.84 44.4809H26C25.3316 44.4809 24.6907 44.2154 24.2181 43.7428C23.7455 43.2702 23.48 42.6292 23.48 41.9609V13.4009C23.48 12.7325 23.7455 12.0915 24.2181 11.6189C24.6907 11.1464 25.3316 10.8809 26 10.8809H41.96Z" fill="white"/>
<path d="M23.4806 13.4004V23.4804H5.84058L8.62938 15.1224C8.79555 14.621 9.11549 14.1848 9.54375 13.8757C9.97201 13.5665 10.4868 13.4002 11.015 13.4004H23.4806Z" fill="#333387"/>
<path d="M30.2006 22.64C29.9778 22.64 29.7642 22.5514 29.6067 22.3939L27.9267 20.7139C27.7737 20.5555 27.689 20.3433 27.6909 20.123C27.6929 19.9028 27.7812 19.6921 27.9369 19.5364C28.0927 19.3806 28.3034 19.2923 28.5236 19.2904C28.7439 19.2885 28.9561 19.3731 29.1145 19.5261L30.0704 20.4821L32.8617 16.2938C32.9229 16.202 33.0016 16.1232 33.0933 16.0619C33.185 16.0005 33.2879 15.9578 33.3961 15.9362C33.5043 15.9146 33.6156 15.9145 33.7239 15.9359C33.8321 15.9574 33.935 15.9999 34.0268 16.0611C34.1186 16.1224 34.1974 16.2011 34.2588 16.2928C34.3201 16.3844 34.3628 16.4873 34.3844 16.5955C34.406 16.7037 34.4061 16.8151 34.3847 16.9233C34.3632 17.0315 34.3207 17.1344 34.2595 17.2262L30.8995 22.2662C30.8311 22.3702 30.7404 22.4577 30.6341 22.5223C30.5278 22.5869 30.4084 22.6272 30.2846 22.64C30.2552 22.64 30.2275 22.64 30.2006 22.64Z" fill="#33C455"/>
<path d="M44.48 19.2796H36.92C36.6972 19.2796 36.4836 19.1911 36.326 19.0336C36.1685 18.876 36.08 18.6624 36.08 18.4396C36.08 18.2168 36.1685 18.0032 36.326 17.8456C36.4836 17.6881 36.6972 17.5996 36.92 17.5996H44.48C44.7028 17.5996 44.9165 17.6881 45.074 17.8456C45.2315 18.0032 45.32 18.2168 45.32 18.4396C45.32 18.6624 45.2315 18.876 45.074 19.0336C44.9165 19.1911 44.7028 19.2796 44.48 19.2796Z" fill="#BBBACE"/>
<path d="M41.8071 22.639H36.92C36.6972 22.639 36.4836 22.5505 36.326 22.393C36.1685 22.2354 36.08 22.0218 36.08 21.799C36.08 21.5762 36.1685 21.3625 36.326 21.205C36.4836 21.0475 36.6972 20.959 36.92 20.959H41.8071C42.0299 20.959 42.2436 21.0475 42.4011 21.205C42.5586 21.3625 42.6471 21.5762 42.6471 21.799C42.6471 22.0218 42.5586 22.2354 42.4011 22.393C42.2436 22.5505 42.0299 22.639 41.8071 22.639Z" fill="#BBBACE"/>
<path d="M30.2006 31.0385C29.9778 31.0384 29.7642 30.9499 29.6067 30.7923L27.9267 29.1123C27.7737 28.9539 27.689 28.7417 27.6909 28.5215C27.6929 28.3012 27.7812 28.0906 27.9369 27.9348C28.0927 27.7791 28.3034 27.6907 28.5236 27.6888C28.7439 27.6869 28.9561 27.7716 29.1145 27.9246L30.0704 28.8805L32.8617 24.6923C32.9229 24.6005 33.0016 24.5217 33.0933 24.4603C33.185 24.3989 33.2879 24.3562 33.3961 24.3346C33.5043 24.313 33.6156 24.3129 33.7239 24.3344C33.8321 24.3558 33.935 24.3984 34.0268 24.4596C34.1186 24.5208 34.1974 24.5995 34.2588 24.6912C34.3201 24.7829 34.3628 24.8857 34.3844 24.9939C34.406 25.1021 34.4061 25.2135 34.3847 25.3217C34.3632 25.4299 34.3207 25.5329 34.2595 25.6247L30.8995 30.6647C30.8305 30.768 30.7396 30.8547 30.6331 30.9186C30.5266 30.9825 30.4073 31.022 30.2838 31.0343C30.2552 31.0385 30.2275 31.0385 30.2006 31.0385Z" fill="#33C455"/>
<path d="M44.48 27.68H36.92C36.6972 27.68 36.4836 27.5915 36.326 27.434C36.1685 27.2764 36.08 27.0628 36.08 26.84C36.08 26.6172 36.1685 26.4036 36.326 26.246C36.4836 26.0885 36.6972 26 36.92 26H44.48C44.7028 26 44.9165 26.0885 45.074 26.246C45.2315 26.4036 45.32 26.6172 45.32 26.84C45.32 27.0628 45.2315 27.2764 45.074 27.434C44.9165 27.5915 44.7028 27.68 44.48 27.68Z" fill="#BBBACE"/>
<path d="M41.8071 31.0394H36.92C36.6972 31.0394 36.4836 30.9509 36.326 30.7933C36.1685 30.6358 36.08 30.4222 36.08 30.1994C36.08 29.9766 36.1685 29.7629 36.326 29.6054C36.4836 29.4479 36.6972 29.3594 36.92 29.3594H41.8071C42.0299 29.3594 42.2436 29.4479 42.4011 29.6054C42.5586 29.7629 42.6471 29.9766 42.6471 30.1994C42.6471 30.4222 42.5586 30.6358 42.4011 30.7933C42.2436 30.9509 42.0299 31.0394 41.8071 31.0394Z" fill="#BBBACE"/>
<path d="M30.2006 39.4389C29.9778 39.4388 29.7642 39.3503 29.6067 39.1927L27.9267 37.5127C27.7737 37.3543 27.689 37.1421 27.6909 36.9219C27.6929 36.7016 27.7812 36.4909 27.9369 36.3352C28.0927 36.1795 28.3034 36.0911 28.5236 36.0892C28.7439 36.0873 28.9561 36.172 29.1145 36.325L30.0704 37.2809L32.8617 33.0927C32.9229 33.0009 33.0016 32.9221 33.0933 32.8607C33.185 32.7993 33.2879 32.7566 33.3961 32.735C33.5043 32.7134 33.6156 32.7133 33.7239 32.7348C33.8321 32.7562 33.935 32.7988 34.0268 32.86C34.1186 32.9212 34.1974 32.9999 34.2588 33.0916C34.3201 33.1833 34.3628 33.2861 34.3844 33.3943C34.406 33.5025 34.4061 33.6139 34.3847 33.7221C34.3632 33.8303 34.3207 33.9333 34.2595 34.0251L30.8995 39.0651C30.8311 39.169 30.7404 39.2565 30.6341 39.3211C30.5278 39.3858 30.4084 39.426 30.2846 39.4389C30.2552 39.4389 30.2275 39.4389 30.2006 39.4389Z" fill="#33C455"/>
<path d="M44.48 36.0804H36.92C36.6972 36.0804 36.4836 35.9919 36.326 35.8344C36.1685 35.6768 36.08 35.4632 36.08 35.2404C36.08 35.0176 36.1685 34.804 36.326 34.6464C36.4836 34.4889 36.6972 34.4004 36.92 34.4004H44.48C44.7028 34.4004 44.9165 34.4889 45.074 34.6464C45.2315 34.804 45.32 35.0176 45.32 35.2404C45.32 35.4632 45.2315 35.6768 45.074 35.8344C44.9165 35.9919 44.7028 36.0804 44.48 36.0804Z" fill="#BBBACE"/>
<path d="M41.8071 39.4398H36.92C36.6972 39.4398 36.4836 39.3513 36.326 39.1937C36.1685 39.0362 36.08 38.8225 36.08 38.5998C36.08 38.377 36.1685 38.1633 36.326 38.0058C36.4836 37.8483 36.6972 37.7598 36.92 37.7598H41.8071C42.0299 37.7598 42.2436 37.8483 42.4011 38.0058C42.5586 38.1633 42.6471 38.377 42.6471 38.5998C42.6471 38.8225 42.5586 39.0362 42.4011 39.1937C42.2436 39.3513 42.0299 39.4398 41.8071 39.4398Z" fill="#BBBACE"/>
<path d="M23.4798 36.0804H13.3998C13.177 36.0804 12.9634 35.9919 12.8058 35.8344C12.6483 35.6768 12.5598 35.4632 12.5598 35.2404C12.5598 35.0176 12.6483 34.804 12.8058 34.6464C12.9634 34.4889 13.177 34.4004 13.3998 34.4004H23.4798C23.7026 34.4004 23.9163 34.4889 24.0738 34.6464C24.2313 34.804 24.3198 35.0176 24.3198 35.2404C24.3198 35.4632 24.2313 35.6768 24.0738 35.8344C23.9163 35.9919 23.7026 36.0804 23.4798 36.0804Z" fill="#D30032"/>
<path d="M7.52018 36.0804H5.84018C5.6174 36.0804 5.40374 35.9919 5.24621 35.8344C5.08868 35.6768 5.00018 35.4632 5.00018 35.2404C5.00018 35.0176 5.08868 34.804 5.24621 34.6464C5.40374 34.4889 5.6174 34.4004 5.84018 34.4004H7.52018C7.74296 34.4004 7.95662 34.4889 8.11415 34.6464C8.27168 34.804 8.36018 35.0176 8.36018 35.2404C8.36018 35.4632 8.27168 35.6768 8.11415 35.8344C7.95662 35.9919 7.74296 36.0804 7.52018 36.0804Z" fill="#F4BC2F"/>
<path d="M47.8406 10.041H26.0006C25.1094 10.041 24.2548 10.395 23.6247 11.0251C22.9946 11.6553 22.6406 12.5099 22.6406 13.401V41.961C22.6406 42.8521 22.9946 43.7068 23.6247 44.3369C24.2548 44.967 25.1094 45.321 26.0006 45.321H47.8406C48.7317 45.321 49.5863 44.967 50.2164 44.3369C50.8466 43.7068 51.2006 42.8521 51.2006 41.961V13.401C51.2006 12.5099 50.8466 11.6553 50.2164 11.0251C49.5863 10.395 48.7317 10.041 47.8406 10.041ZM49.5206 41.961C49.5192 42.4062 49.3418 42.8327 49.027 43.1475C48.7123 43.4623 48.2857 43.6397 47.8406 43.641H26.0006C25.5554 43.6397 25.1289 43.4623 24.8141 43.1475C24.4993 42.8327 24.3219 42.4062 24.3206 41.961V13.401C24.3219 12.9559 24.4993 12.5293 24.8141 12.2145C25.1289 11.8998 25.5554 11.7223 26.0006 11.721H47.8406C48.2857 11.7223 48.7123 11.8998 49.027 12.2145C49.3418 12.5293 49.5192 12.9559 49.5206 13.401V41.961Z" fill="#B27246"/>
<path d="M41.96 10.0405V11.7205C41.96 11.9433 41.8715 12.1569 41.714 12.3145C41.5564 12.472 41.3428 12.5605 41.12 12.5605H32.72C32.4972 12.5605 32.2836 12.472 32.126 12.3145C31.9685 12.1569 31.88 11.9433 31.88 11.7205V10.0405C31.88 9.81771 31.9685 9.60406 32.126 9.44652C32.2836 9.28899 32.4972 9.20049 32.72 9.20049H33.7616C34.0808 8.65544 34.5452 8.20976 35.1028 7.91313C35.6605 7.61649 36.2896 7.48056 36.92 7.52049C37.5514 7.48167 38.1812 7.61801 38.74 7.91446C39.2988 8.21091 39.7649 8.65595 40.0868 9.20049H41.12C41.3428 9.20049 41.5564 9.28899 41.714 9.44652C41.8715 9.60406 41.96 9.81771 41.96 10.0405Z" fill="#E0DFE5"/>
</g>
<defs>
<clipPath id="clip0_489_48472">
<rect width="50.4" height="50.4" fill="white" transform="translate(0.799988 0.800781)"/>
</clipPath>
</defs>
</svg>
