<svg width="40" height="40" viewBox="0 0 40 40" fill="none" xmlns="http://www.w3.org/2000/svg">
<g filter="url(#filter0_d_488_29134)">
<rect x="4" y="2" width="32" height="32" rx="8" fill="white"/>
<rect x="4.5" y="2.5" width="31" height="31" rx="7.5" stroke="#F0F0F0"/>
<path d="M21.1649 23.6287H26" stroke="#4E4E4E" stroke-width="1.5" stroke-linecap="round" stroke-linejoin="round"/>
<path fill-rule="evenodd" clip-rule="evenodd" d="M20.52 12.5299C21.0371 11.9119 21.9667 11.8212 22.5975 12.3278C22.6324 12.3553 23.753 13.2259 23.753 13.2259C24.446 13.6448 24.6613 14.5354 24.2329 15.2151C24.2102 15.2515 17.8746 23.1763 17.8746 23.1763C17.6639 23.4393 17.3439 23.5945 17.0019 23.5982L14.5757 23.6287L14.029 21.3149C13.9524 20.9895 14.029 20.6478 14.2398 20.3849L20.52 12.5299Z" stroke="#4E4E4E" stroke-width="1.5" stroke-linecap="round" stroke-linejoin="round"/>
<path d="M19.3472 14.0005L22.9821 16.7919" stroke="#4E4E4E" stroke-width="1.5" stroke-linecap="round" stroke-linejoin="round"/>
</g>
<defs>
<filter id="filter0_d_488_29134" x="0" y="0" width="40" height="40" filterUnits="userSpaceOnUse" color-interpolation-filters="sRGB">
<feFlood flood-opacity="0" result="BackgroundImageFix"/>
<feColorMatrix in="SourceAlpha" type="matrix" values="0 0 0 0 0 0 0 0 0 0 0 0 0 0 0 0 0 0 127 0" result="hardAlpha"/>
<feOffset dy="2"/>
<feGaussianBlur stdDeviation="2"/>
<feColorMatrix type="matrix" values="0 0 0 0 0 0 0 0 0 0 0 0 0 0 0 0 0 0 0.06 0"/>
<feBlend mode="normal" in2="BackgroundImageFix" result="effect1_dropShadow_488_29134"/>
<feBlend mode="normal" in="SourceGraphic" in2="effect1_dropShadow_488_29134" result="shape"/>
</filter>
</defs>
</svg>
