<!-- @formatter:off -->
<svg xmlns="http://www.w3.org/2000/svg" >
    <defs>
        <svg id="dashboard" width="20" height="20" viewBox="0 0 20 20" fill="none" xmlns="http://www.w3.org/2000/svg">
            <path d="M7.63102 17.3089V14.7532C7.63101 14.1032 8.16094 13.575 8.81752 13.5707H11.2226C11.8823 13.5707 12.4171 14.1001 12.4171 14.7532V14.7532V17.3168C12.4169 17.8687 12.8619 18.3197 13.4192 18.3327H15.0226C16.6209 18.3327 17.9167 17.0499 17.9167 15.4675V15.4675V8.19754C17.9081 7.57504 17.6129 6.99047 17.115 6.61021L11.6314 2.2371C10.6708 1.47565 9.30518 1.47565 8.34452 2.2371L2.88503 6.61815C2.38523 6.99687 2.0895 7.5824 2.08334 8.20548V15.4675C2.08334 17.0499 3.37907 18.3327 4.97744 18.3327H6.58081C7.15197 18.3327 7.61499 17.8743 7.61499 17.3089V17.3089" stroke="white" stroke-width="1.5" stroke-linecap="round" stroke-linejoin="round"/>
        </svg>

        <svg id="follow" width="20" height="20" viewBox="0 0 20 20" fill="none" xmlns="http://www.w3.org/2000/svg">
            <path fill-rule="evenodd" clip-rule="evenodd" d="M2.49195 4.06012C2.75555 3.62366 4.20793 2.03615 5.24436 2.08407C5.55417 2.10974 5.82804 2.29717 6.05056 2.51454C6.56151 3.01347 8.02415 4.90052 8.10717 5.29761C8.30915 6.27152 7.14862 6.83292 7.50379 7.81453C8.40928 10.0302 9.96949 11.5903 12.1861 12.4949C13.1669 12.8501 13.7284 11.6896 14.7023 11.8924C15.0986 11.9754 16.9866 13.438 17.4855 13.9489C17.7021 14.1706 17.8904 14.4453 17.916 14.7551C17.9545 15.8462 16.2685 17.3191 15.9399 17.5074C15.1645 18.0619 14.1529 18.0525 12.9196 17.4791C9.47823 16.0474 3.97856 10.6515 2.5202 7.08025C1.96218 5.85389 1.92367 4.83548 2.49195 4.06012Z" stroke="white" stroke-width="1.5" stroke-linecap="round" stroke-linejoin="round"/>
        </svg>
            

        <svg id="service-center" width="20" height="20" viewBox="0 0 20 20" fill="none" xmlns="http://www.w3.org/2000/svg">
            <path fill-rule="evenodd" clip-rule="evenodd" d="M1.875 8.47852C1.875 8.13352 2.155 7.85352 2.5 7.85352C2.845 7.85352 3.125 8.13352 3.125 8.47852V15.5618C3.125 16.5977 3.96417 17.4368 5 17.4368H15C16.0358 17.4368 16.875 16.5977 16.875 15.5618V8.47852C16.875 8.13352 17.155 7.85352 17.5 7.85352C17.845 7.85352 18.125 8.13352 18.125 8.47852V15.5618C18.125 17.2877 16.7258 18.6868 15 18.6868H5C3.27417 18.6868 1.875 17.2877 1.875 15.5618V8.47852Z" fill="white"/>
            <path fill-rule="evenodd" clip-rule="evenodd" d="M10 11.1875C10.8292 11.1875 11.6233 11.5167 12.21 12.1025C12.7958 12.6892 13.125 13.4833 13.125 14.3125V18.0625C13.125 18.4075 12.845 18.6875 12.5 18.6875C12.155 18.6875 11.875 18.4075 11.875 18.0625V14.3125C11.875 13.815 11.6775 13.3383 11.3258 12.9867C10.9742 12.635 10.4975 12.4375 10 12.4375C9.5025 12.4375 9.02583 12.635 8.67417 12.9867C8.3225 13.3383 8.125 13.815 8.125 14.3125V18.0625C8.125 18.4075 7.845 18.6875 7.5 18.6875C7.155 18.6875 6.875 18.4075 6.875 18.0625V14.3125C6.875 13.4833 7.20417 12.6892 7.79 12.1025C8.37667 11.5167 9.17083 11.1875 10 11.1875Z" fill="white"/>
            <path fill-rule="evenodd" clip-rule="evenodd" d="M7.45334 1.9375V6.625C7.45334 8.385 6.02501 9.8125 4.26501 9.8125C3.27251 9.8125 2.33501 9.355 1.72417 8.57333C1.11334 7.79083 0.897507 6.77167 1.13751 5.80833L1.80001 3.15917C2.07167 2.07333 3.04667 1.3125 4.16501 1.3125H6.82834C7.17334 1.3125 7.45334 1.5925 7.45334 1.9375ZM6.20334 2.5625H4.16501C3.62001 2.5625 3.14501 2.93333 3.01334 3.46167L2.35084 6.11167C2.20334 6.70083 2.33584 7.325 2.70917 7.80417C3.08334 8.2825 3.65751 8.5625 4.26501 8.5625C5.33501 8.5625 6.20334 7.695 6.20334 6.625V2.5625Z" fill="white"/>
            <path fill-rule="evenodd" clip-rule="evenodd" d="M13.1717 1.3125H15.835C16.9533 1.3125 17.9283 2.07333 18.2 3.15917L18.8625 5.80833C19.1025 6.77167 18.8867 7.79083 18.2758 8.57333C17.665 9.355 16.7275 9.8125 15.735 9.8125C13.975 9.8125 12.5467 8.385 12.5467 6.625V1.9375C12.5467 1.5925 12.8267 1.3125 13.1717 1.3125ZM13.7967 2.5625V6.625C13.7967 7.695 14.665 8.5625 15.735 8.5625C16.3425 8.5625 16.9167 8.2825 17.2908 7.80417C17.6642 7.325 17.7967 6.70083 17.6492 6.11167L16.9867 3.46167C16.855 2.93333 16.38 2.5625 15.835 2.5625H13.7967Z" fill="white"/>
            <path fill-rule="evenodd" clip-rule="evenodd" d="M6.82169 1.3125H13.1717C13.3375 1.3125 13.4967 1.37833 13.6142 1.49583C13.7317 1.61333 13.7967 1.7725 13.7967 1.93833L13.7925 6.47167C13.7909 8.3175 12.2942 9.8125 10.4492 9.8125H9.54085C7.69419 9.8125 6.19669 8.31583 6.19669 6.46917V1.9375C6.19669 1.5925 6.47669 1.3125 6.82169 1.3125ZM7.44669 2.5625V6.46917C7.44669 7.625 8.38419 8.5625 9.54085 8.5625H10.4492C11.605 8.5625 12.5417 7.62667 12.5425 6.47083L12.5467 2.5625H7.44669Z" fill="white"/>
        </svg>
            
        <svg id="car" width="24" height="24" viewBox="0 0 24 24" fill="none" xmlns="http://www.w3.org/2000/svg">
            <g clip-path="url(#clip0_489_51293)">
                <path d="M22.7508 10.5436L20.8229 9.66325L19.1213 6.9485C18.6295 6.16162 17.7639 5.68457 16.8344 5.68949H9.58523C8.74424 5.68949 7.94752 6.07801 7.43605 6.74687L5.23769 9.62391L1.57377 10.6272C0.644261 10.8829 0 11.7337 0 12.6977V14.0993C0 15.2846 0.94426 16.2632 2.1295 16.2632H2.44426C2.82295 17.7239 4.31311 18.5993 5.77376 18.2206C6.73277 17.9698 7.48523 17.2223 7.73113 16.2632H15.9934C16.3721 17.7239 17.8623 18.5993 19.3229 18.2206C20.2819 17.9698 21.0344 17.2223 21.2803 16.2632H21.8704C23.0557 16.2632 24 15.2846 24 14.0993V12.501C24.0049 11.66 23.5131 10.8928 22.7508 10.5436ZM5.08524 17.3157C4.1213 17.3157 3.33934 16.5337 3.33934 15.5698C3.33934 14.6059 4.1213 13.8239 5.08524 13.8239C6.04917 13.8239 6.83113 14.6059 6.83113 15.5698C6.83605 16.5288 6.05409 17.3108 5.08524 17.3157ZM18.6344 17.3157C17.6705 17.3157 16.8885 16.5337 16.8885 15.5698C16.8885 14.6059 17.6705 13.8239 18.6344 13.8239C19.5983 13.8239 20.3803 14.6059 20.3803 15.5698C20.3852 16.5288 19.6032 17.3108 18.6344 17.3157ZM21.8704 15.2796H21.3491C21.1868 13.7796 19.8344 12.6977 18.3344 12.8649C17.0606 13.0026 16.0573 14.0108 15.9196 15.2796H7.79998C7.63769 13.7796 6.28523 12.6977 4.78524 12.8649C3.51147 13.0026 2.50819 14.0108 2.37049 15.2796H2.12459C1.48032 15.2796 0.978687 14.7436 0.978687 14.0993V12.6977C0.973768 12.1714 1.32295 11.7141 1.8295 11.5714L5.66064 10.5239C5.76392 10.4944 5.85737 10.4354 5.9213 10.3469L8.2131 7.34195C8.54261 6.919 9.04916 6.67309 9.58523 6.67309H16.8344C17.4246 6.66818 17.9803 6.96818 18.2901 7.46982L20.0705 10.3124C20.1196 10.396 20.1983 10.46 20.2819 10.4993L22.3377 11.4387C22.7508 11.6305 23.0163 12.0436 23.0114 12.501V14.0993H23.0163C23.0163 14.7436 22.5147 15.2796 21.8704 15.2796Z" fill="white"/>
            </g>
            <defs>
                <clipPath id="clip0_489_51293">
                    <rect width="24" height="24" fill="white"/>
                </clipPath>
            </defs>
        </svg>
        <svg id="account" width="20" height="20" viewBox="0 0 20 20" fill="none" xmlns="http://www.w3.org/2000/svg">
            <g clip-path="url(#clip0_489_51297)">
                <path d="M14 20H6C4.40921 19.9983 2.88405 19.3657 1.75919 18.2408C0.634327 17.116 0.00165449 15.5908 0 14V6C0.00165449 4.40921 0.634327 2.88405 1.75919 1.75919C2.88405 0.634327 4.40921 0.00165449 6 0L14 0C15.5908 0.00165449 17.116 0.634327 18.2408 1.75919C19.3657 2.88405 19.9983 4.40921 20 6V14C19.9983 15.5908 19.3657 17.116 18.2408 18.2408C17.116 19.3657 15.5908 19.9983 14 20ZM6 1.33125C4.76228 1.3329 3.57572 1.82532 2.70052 2.70052C1.82532 3.57572 1.3329 4.76228 1.33125 6V14C1.3329 15.2377 1.82532 16.4243 2.70052 17.2995C3.57572 18.1747 4.76228 18.6671 6 18.6688H14C15.2377 18.6671 16.4243 18.1747 17.2995 17.2995C18.1747 16.4243 18.6671 15.2377 18.6688 14V6C18.6671 4.76228 18.1747 3.57572 17.2995 2.70052C16.4243 1.82532 15.2377 1.3329 14 1.33125H6Z" fill="white"/>
                <path d="M10 11.332C9.20888 11.332 8.43552 11.0974 7.77772 10.6579C7.11992 10.2184 6.60723 9.59367 6.30448 8.86277C6.00173 8.13186 5.92252 7.3276 6.07686 6.55167C6.2312 5.77575 6.61217 5.06302 7.17158 4.50361C7.73099 3.9442 8.44372 3.56323 9.21964 3.40889C9.99556 3.25455 10.7998 3.33376 11.5307 3.63651C12.2616 3.93927 12.8864 4.45196 13.3259 5.10975C13.7654 5.76755 14 6.54091 14 7.33203C13.9983 8.39239 13.5764 9.40885 12.8266 10.1586C12.0768 10.9084 11.0604 11.3304 10 11.332ZM10 4.66953C9.47217 4.66953 8.9562 4.82605 8.51732 5.1193C8.07845 5.41254 7.73639 5.82935 7.5344 6.317C7.33241 6.80465 7.27956 7.34124 7.38253 7.85893C7.48551 8.37662 7.73968 8.85214 8.11291 9.22537C8.48614 9.59861 8.96167 9.85278 9.47935 9.95575C9.99704 10.0587 10.5336 10.0059 11.0213 9.80389C11.5089 9.60189 11.9257 9.25983 12.219 8.82096C12.5122 8.38209 12.6688 7.86611 12.6688 7.33828C12.6688 6.63049 12.3876 5.95168 11.8871 5.45119C11.3866 4.9507 10.7078 4.66953 10 4.66953Z" fill="white"/>
                <path d="M14.675 15.4117C14.5083 15.4121 14.3476 15.3496 14.225 15.2367C13.3661 14.4362 12.2366 13.9898 11.0625 13.9867H8.94374C7.76968 13.9898 6.64012 14.4362 5.78124 15.2367C5.71729 15.3006 5.64104 15.3509 5.55712 15.3845C5.47319 15.4181 5.38332 15.4343 5.29295 15.4322C5.20257 15.43 5.11357 15.4096 5.03131 15.3721C4.94904 15.3347 4.87524 15.2809 4.81434 15.2141C4.75345 15.1473 4.70674 15.0688 4.67702 14.9834C4.64731 14.898 4.63521 14.8075 4.64146 14.7173C4.64772 14.6272 4.67219 14.5392 4.7134 14.4587C4.75461 14.3783 4.81171 14.307 4.88124 14.2492C5.9886 13.2304 7.43899 12.6658 8.94374 12.668H11.0562C12.5648 12.6677 14.018 13.2369 15.125 14.2617C15.2222 14.353 15.29 14.4713 15.3195 14.6014C15.3489 14.7316 15.3388 14.8675 15.2905 14.9918C15.2421 15.1161 15.1576 15.2231 15.0479 15.2991C14.9383 15.375 14.8084 15.4164 14.675 15.418V15.4117Z" fill="white"/>
            </g>
            <defs>
                <clipPath id="clip0_489_51297">
                 <rect width="20" height="20" fill="white"/>
                </clipPath>
            </defs>
        </svg>
            
        <svg id="history" width="20" height="20" viewBox="0 0 20 20" fill="none" xmlns="http://www.w3.org/2000/svg">
            <g clip-path="url(#clip0_489_51301)">
                <path d="M10.9167 0.833984C8.90144 0.843793 6.94641 1.52184 5.35786 2.76188C3.76931 4.00193 2.637 5.73391 2.13833 7.68648L1.52833 6.76398C1.47058 6.6674 1.39387 6.58352 1.30282 6.51739C1.21177 6.45126 1.10828 6.40426 0.998572 6.37921C0.888866 6.35417 0.775224 6.3516 0.664499 6.37167C0.553774 6.39173 0.448261 6.43402 0.354321 6.49597C0.260381 6.55792 0.179961 6.63825 0.11791 6.73213C0.05586 6.826 0.0134648 6.93147 -0.00671876 7.04217C-0.0269023 7.15288 -0.024456 7.26652 0.00047259 7.37626C0.0254012 7.48599 0.0722957 7.58953 0.138328 7.68065L1.97166 10.459C2.09901 10.6372 2.28677 10.7631 2.49999 10.8132C2.71772 10.8563 2.9437 10.813 3.13 10.6923L5.88 8.83982C5.97481 8.78061 6.05675 8.70292 6.12092 8.61139C6.1851 8.51987 6.2302 8.41636 6.25355 8.30704C6.2769 8.19772 6.27801 8.08482 6.25683 7.97506C6.23564 7.8653 6.19259 7.76092 6.13023 7.66814C6.06788 7.57536 5.98749 7.49608 5.89386 7.43501C5.80023 7.37394 5.69527 7.33233 5.58523 7.31266C5.47519 7.29299 5.36232 7.29566 5.25333 7.32051C5.14434 7.34536 5.04146 7.39189 4.95083 7.45732L3.69999 8.30065C4.0329 6.94931 4.73894 5.71875 5.73756 4.74937C6.73619 3.78 7.98719 3.11084 9.34783 2.81825C10.7085 2.52565 12.124 2.62141 13.4328 3.09459C14.7416 3.56777 15.8911 4.39931 16.7501 5.49435C17.609 6.5894 18.1429 7.90383 18.2908 9.2877C18.4387 10.6716 18.1946 12.0691 17.5864 13.3209C16.9781 14.5728 16.0303 15.6284 14.851 16.3674C13.6717 17.1065 12.3084 17.4991 10.9167 17.5007C9.72361 17.4974 8.54898 17.2062 7.49262 16.6517C6.43626 16.0972 5.52941 15.2958 4.84916 14.3157C4.78824 14.2221 4.70914 14.1417 4.61656 14.0794C4.52398 14.017 4.41981 13.9738 4.31023 13.9525C4.20065 13.9311 4.0879 13.932 3.97867 13.9551C3.86944 13.9781 3.76596 14.0229 3.67437 14.0867C3.58278 14.1506 3.50495 14.2322 3.4455 14.3267C3.38605 14.4212 3.34619 14.5266 3.3283 14.6368C3.3104 14.747 3.31483 14.8597 3.34132 14.9681C3.3678 15.0766 3.41581 15.1786 3.48249 15.2682C4.58838 16.8625 6.17652 18.06 8.0135 18.6847C9.85048 19.3095 11.8394 19.3285 13.688 18.7389C15.5366 18.1494 17.1473 16.9825 18.2835 15.4096C19.4196 13.8367 20.0213 11.9408 20 10.0007C20.0082 7.58141 19.0565 5.25769 17.3537 3.53922C15.6508 1.82076 13.3359 0.847873 10.9167 0.833984Z" fill="white"/>
                <path d="M10.8333 4.95898C10.6123 4.95898 10.4004 5.04678 10.2441 5.20306C10.0878 5.35934 10 5.5713 10 5.79232V10.0007C10.0035 10.2209 10.0909 10.4316 10.2442 10.5898L12.7442 13.1123C12.901 13.2667 13.112 13.3538 13.3321 13.3548C13.5523 13.3559 13.7641 13.271 13.9225 13.1182C14.0794 12.9625 14.1681 12.751 14.169 12.53C14.1699 12.309 14.0831 12.0968 13.9275 11.9398L11.6667 9.65815V5.79232C11.6667 5.5713 11.5789 5.35934 11.4226 5.20306C11.2663 5.04678 11.0543 4.95898 10.8333 4.95898Z" fill="white"/>
            </g>
                <defs>
                    <clipPath id="clip0_489_51301">
                        <rect width="20" height="20" fill="white"/>
                    </clipPath>
                </defs>
        </svg>

        <svg id="dashboard-service" width="24" height="24" viewBox="0 0 24 24" fill="none" xmlns="http://www.w3.org/2000/svg">
            <path d="M17.625 18C18.0392 18 18.375 17.6642 18.375 17.25C18.375 16.8358 18.0392 16.5 17.625 16.5C17.2108 16.5 16.875 16.8358 16.875 17.25C16.875 17.6642 17.2108 18 17.625 18Z" fill="white"/>
            <path d="M6.375 18C6.78921 18 7.125 17.6642 7.125 17.25C7.125 16.8358 6.78921 16.5 6.375 16.5C5.96079 16.5 5.625 16.8358 5.625 17.25C5.625 17.6642 5.96079 18 6.375 18Z" fill="white"/>
            <path d="M20.0618 15H20.25C20.4489 15 20.6397 14.921 20.7803 14.7803C20.921 14.6397 21 14.4489 21 14.25C21 14.0511 20.921 13.8603 20.7803 13.7197C20.6397 13.579 20.4489 13.5 20.25 13.5H18.9375L18.6375 13.1048L17.5823 10.9935C17.3968 10.6194 17.1103 10.3046 16.7552 10.0849C16.4001 9.86511 15.9906 9.74911 15.573 9.75001H8.427C8.0089 9.74855 7.59876 9.86428 7.24309 10.0841C6.88742 10.3039 6.60046 10.6189 6.41475 10.9935L5.3595 13.1048L5.0625 13.5H3.75C3.55109 13.5 3.36032 13.579 3.21967 13.7197C3.07902 13.8603 3 14.0511 3 14.25C3 14.4489 3.07902 14.6397 3.21967 14.7803C3.36032 14.921 3.55109 15 3.75 15H3.9375L3.45075 15.6495C3.15961 16.0395 3.00182 16.5129 3.00075 16.9995V20.25C3.00075 20.8468 3.2378 21.419 3.65976 21.841C4.08172 22.263 4.65401 22.5 5.25075 22.5H6C6.59674 22.5 7.16903 22.263 7.59099 21.841C8.01295 21.419 8.25 20.8468 8.25 20.25H15.75C15.75 20.8468 15.9871 21.419 16.409 21.841C16.831 22.263 17.4033 22.5 18 22.5H18.75C19.3467 22.5 19.919 22.263 20.341 21.841C20.7629 21.419 21 20.8468 21 20.25V17.0003C20.9992 16.5136 20.8414 16.0401 20.55 15.6503L20.0618 15ZM6.675 13.8353L7.76025 11.6648C7.82221 11.5408 7.91731 11.4364 8.03501 11.3632C8.15271 11.2899 8.28839 11.2508 8.427 11.25H15.573C15.7122 11.2501 15.8487 11.2889 15.9671 11.3622C16.0856 11.4354 16.1813 11.5402 16.2435 11.6648L17.3287 13.8353C17.3493 13.8754 17.3731 13.9138 17.4 13.95L17.4247 13.9823L17.2118 14.124C17.0899 14.2056 16.9467 14.2494 16.8 14.25H7.20375C7.05582 14.2502 6.91118 14.2063 6.78825 14.124L6.57525 13.9823L6.6 13.95C6.62818 13.9139 6.65327 13.8756 6.675 13.8353ZM19.5 20.25C19.5 20.4489 19.421 20.6397 19.2803 20.7803C19.1397 20.921 18.9489 21 18.75 21H18C17.8011 21 17.6103 20.921 17.4697 20.7803C17.329 20.6397 17.25 20.4489 17.25 20.25V19.5C17.25 19.3011 17.171 19.1103 17.0303 18.9697C16.8897 18.829 16.6989 18.75 16.5 18.75H7.5C7.30109 18.75 7.11032 18.829 6.96967 18.9697C6.82902 19.1103 6.75 19.3011 6.75 19.5V20.25C6.75 20.4489 6.67098 20.6397 6.53033 20.7803C6.38968 20.921 6.19891 21 6 21H5.25C5.05109 21 4.86032 20.921 4.71967 20.7803C4.57902 20.6397 4.5 20.4489 4.5 20.25V17.0003C4.50059 16.8381 4.55316 16.6804 4.65 16.5503L5.6745 15.1853L5.95575 15.3728C6.3255 15.6185 6.75981 15.749 7.20375 15.7478H16.8C17.2439 15.749 17.6783 15.6185 18.048 15.3728L18.3292 15.1853L19.35 16.5503C19.4471 16.6802 19.4997 16.838 19.5 17.0003V20.25Z" fill="white"/>
            <path d="M7.5 8.99972C8.07945 8.99699 8.65041 8.86015 9.16815 8.59992C9.68588 8.33968 10.1363 7.96312 10.4842 7.49972H18C18.5967 7.49972 19.169 7.26267 19.591 6.84071C20.0129 6.41875 20.25 5.84646 20.25 5.24972C20.25 4.65298 20.0129 4.08069 19.591 3.65873C19.169 3.23677 18.5967 2.99972 18 2.99972H10.485C10.1007 2.4907 9.59269 2.08831 9.00923 1.8307C8.42576 1.57309 7.78615 1.4688 7.15107 1.52774C6.516 1.58667 5.9065 1.80687 5.3804 2.16744C4.8543 2.52802 4.42903 3.01702 4.14494 3.58806C3.86085 4.1591 3.72735 4.79325 3.7571 5.43036C3.78685 6.06748 3.97887 6.68643 4.31494 7.22851C4.65101 7.77059 5.12 8.21783 5.67741 8.52781C6.23483 8.83779 6.86219 9.00023 7.5 8.99972ZM6.92475 3.07022C7.11298 3.02377 7.30612 3.0001 7.5 2.99972C7.89362 2.99831 8.28051 3.10179 8.62086 3.29951C8.96122 3.49724 9.24275 3.78208 9.4365 4.12472C9.50219 4.23851 9.59663 4.33305 9.71036 4.39886C9.82408 4.46467 9.9531 4.49945 10.0845 4.49972H18C18.1989 4.49972 18.3897 4.57874 18.5303 4.71939C18.671 4.86004 18.75 5.05081 18.75 5.24972C18.75 5.44863 18.671 5.6394 18.5303 5.78005C18.3897 5.9207 18.1989 5.99972 18 5.99972H10.0837C9.95235 5.99998 9.82333 6.03477 9.70961 6.10058C9.59588 6.16639 9.50145 6.26093 9.43575 6.37472C9.22637 6.75079 8.91217 7.05788 8.53142 7.25862C8.15066 7.45935 7.71976 7.54506 7.29117 7.50533C6.86258 7.46559 6.45478 7.30212 6.11741 7.03481C5.78005 6.76749 5.52767 6.40787 5.391 5.99972H7.125C7.32391 5.99972 7.51468 5.9207 7.65533 5.78005C7.79598 5.6394 7.875 5.44863 7.875 5.24972C7.875 5.05081 7.79598 4.86004 7.65533 4.71939C7.51468 4.57874 7.32391 4.49972 7.125 4.49972H5.376C5.49707 4.15268 5.70167 3.84076 5.97177 3.59146C6.24186 3.34217 6.56914 3.16316 6.92475 3.07022Z" fill="white"/>
        </svg>
            
        <svg id="ticket" width="19" height="20" viewBox="0 0 19 20" fill="none" xmlns="http://www.w3.org/2000/svg">
            <path d="M12.7162 14.2227H5.4962" stroke="white" stroke-width="1.5" stroke-linecap="round" stroke-linejoin="round"/>
            <path d="M12.7162 10.0371H5.4962" stroke="white" stroke-width="1.5" stroke-linecap="round" stroke-linejoin="round"/>
            <path d="M8.25129 5.85938H5.49629" stroke="white" stroke-width="1.5" stroke-linecap="round" stroke-linejoin="round"/>
            <path fill-rule="evenodd" clip-rule="evenodd" d="M12.9086 0.75C12.9086 0.75 5.23159 0.754 5.21959 0.754C2.45959 0.771 0.750595 2.587 0.750595 5.357V14.553C0.750595 17.337 2.4726 19.16 5.2566 19.16C5.2566 19.16 12.9326 19.157 12.9456 19.157C15.7056 19.14 17.4156 17.323 17.4156 14.553V5.357C17.4156 2.573 15.6926 0.75 12.9086 0.75Z" stroke="white" stroke-width="1.5" stroke-linecap="round" stroke-linejoin="round"/>
        </svg>
            
    </defs>
</svg>
