<svg width="14" height="14" viewBox="0 0 14 14" fill="none" xmlns="http://www.w3.org/2000/svg">
<path d="M12.1849 6.25942V4.77794H6.25893V1.81498H4.77745V4.77794H1.81449V6.25942H4.77745V12.1853H6.25893V6.25942H12.1849ZM12.1849 0.333496C12.5552 0.333496 12.9256 0.481644 13.2145 0.785348C13.5182 1.07424 13.6663 1.44461 13.6663 1.81498V12.1853C13.6663 12.5557 13.5182 12.9261 13.2145 13.215C12.9256 13.5187 12.5552 13.6668 12.1849 13.6668H1.81449C1.44412 13.6668 1.07375 13.5187 0.78486 13.215C0.481156 12.9261 0.333008 12.5557 0.333008 12.1853V1.81498C0.333008 1.44461 0.481156 1.07424 0.78486 0.785348C1.07375 0.481644 1.44412 0.333496 1.81449 0.333496H12.1849Z" fill="#767676"/>
</svg>
